 <!DOCTYPE svg PUBLIC "-//W3C//DTD SVG 1.1//EN" "http://www.w3.org/Graphics/SVG/1.1/DTD/svg11.dtd">
<svg id="e2f0911e-85ab-4d17-8338-72e0e01ec516" data-name="Layer 1" xmlns="http://www.w3.org/2000/svg" xmlns:xlink="http://www.w3.org/1999/xlink" width="865.76" height="682.89" viewBox="0 0 865.76 682.89">
<defs>
<clipPath id="e4dd9765-2878-4573-bb7c-5fa3699dd086">
<path id="a5dfa47d-090f-4b42-915a-c1ef3714fa3c" data-name="SVGID" d="M597.41,283.66s26.63-107,39.67-125c0,0,24,2.44,34.29,10.91,0,0-29.85,151.47-60.14,215.62l-32.08-73.51Z" fill="#0071f2" data-primary="true"/>
</clipPath>
<clipPath id="afc481d0-29ea-45d5-8a10-b7ee59cab9b5">
<path id="a3bab4b3-8cb6-4787-930b-564015d6ce17" data-name="SVGID" d="M323.85,627.19s-3.87,4.41-2.79,19.61l68-3.26s4.7-5.06-5.43-6.87c0,0-16.95-5.65-21.86-11.33,0,0-9.13.3-11.73.93C350.08,626.27,335.69,630,323.85,627.19Z" fill="#0071f2" data-primary="true"/>
</clipPath>
<style xmlns="http://www.w3.org/1999/xhtml">*, ::after, ::before { box-sizing: border-box; }
img, svg { vertical-align: middle; }
</style>
<style xmlns="http://www.w3.org/1999/xhtml">*, body, html { -webkit-font-smoothing: antialiased; }
img, svg { max-width: 100%; }
</style>
</defs>
<g id="e3195073-69dd-4e72-8747-96f08aafb44c" data-name="freepik--background-complete--inject-5">
<circle cx="524.68" cy="83.83" r="47.73" transform="translate(358.21 588.41) rotate(-80.82)" fill="#ebebeb"/>
<circle cx="527.19" cy="86.82" r="45.41" transform="translate(356.41 593.08) rotate(-80.71)" fill="#dbdbdb"/>
<circle cx="529.74" cy="85.83" r="42.74" transform="translate(6.89 206.75) rotate(-22.23)" fill="#fff"/>
<rect x="526.67" y="47.36" width="1.09" height="6.46" fill="#ebebeb"/>
<rect x="508.57" y="52.26" width="1.09" height="6.46" transform="translate(40.43 261.91) rotate(-29.99)" fill="#ebebeb"/>
<rect x="495.83" y="63.45" width="1.09" height="6.48" transform="translate(191.22 463.83) rotate(-60.11)" fill="#ebebeb"/>
<rect x="487.77" y="86.28" width="6.46" height="1.09" fill="#ebebeb"/>
<rect x="492.63" y="104.42" width="6.46" height="1.09" transform="translate(13.98 262.08) rotate(-30.01)" fill="#ebebeb"/>
<rect x="505.88" y="117.64" width="6.46" height="1.09" transform="translate(152.4 500.18) rotate(-60.03)" fill="#ebebeb"/>
<rect x="526.67" y="119.83" width="1.09" height="6.46" fill="#ebebeb"/>
<rect x="544.81" y="115.02" width="1.09" height="6.46" transform="translate(13.94 288.52) rotate(-30)" fill="#ebebeb"/>
<rect x="558.03" y="101.72" width="1.09" height="6.44" transform="translate(188.41 536.21) rotate(-60)" fill="#ebebeb"/>
<rect x="560.22" y="86.28" width="6.46" height="1.09" fill="#ebebeb"/>
<rect x="555.36" y="68.15" width="6.44" height="1.09" transform="translate(40.49 288.49) rotate(-30)" fill="#ebebeb"/>
<rect x="542.14" y="54.93" width="6.46" height="1.09" transform="translate(224.88 500.21) rotate(-60.03)" fill="#ebebeb"/>
<rect x="504.09" y="91.22" width="41.17" height="1.09" transform="translate(205.01 517.81) rotate(-63.04)" fill="#ebebeb"/>
<rect x="527.59" y="71.94" width="1.44" height="40.54" transform="translate(-7.82 105.5) rotate(-11.32)" fill="#dbdbdb"/>
<path d="M387.43,393.86H81.2V40.22H387.43ZM88.32,386.73h292V47.36h-292Z" fill="#ebebeb"/>
<rect x="227.97" y="49.23" width="7.13" height="341.07" fill="#ebebeb"/>
<rect x="74.73" y="54.65" width="319.2" height="9.94" fill="#ebebeb"/>
<rect x="74.73" y="65.84" width="319.2" height="9.94" fill="#ebebeb"/>
<rect x="74.73" y="77" width="319.2" height="9.94" fill="#ebebeb"/>
<rect x="74.73" y="88.19" width="319.2" height="9.94" fill="#ebebeb"/>
<rect x="74.73" y="99.37" width="319.2" height="9.94" fill="#ebebeb"/>
<rect x="74.73" y="110.54" width="319.2" height="9.94" fill="#ebebeb"/>
<rect x="74.73" y="121.72" width="319.2" height="9.94" fill="#ebebeb"/>
<rect x="74.73" y="132.9" width="319.2" height="9.94" fill="#ebebeb"/>
<rect x="74.73" y="144.07" width="319.2" height="9.94" fill="#ebebeb"/>
<rect x="370.95" y="52.64" width="1.78" height="229.01" fill="#263238"/>
<polygon points="375 289.96 368.67 289.96 370.25 280.86 373.41 280.86 375 289.96" fill="#263238"/>
<rect x="377.37" y="52.64" width="1.78" height="331.29" fill="#263238"/>
<polygon points="381.42 390.62 375.11 390.62 376.68 381.52 379.85 381.52 381.42 390.62" fill="#263238"/>
<rect x="63.65" y="38.83" width="341.33" height="20.78" fill="#dbdbdb"/>
<rect x="609.68" y="120.67" width="192.43" height="242.32" fill="#ebebeb"/>
<rect x="633.52" y="170.74" width="144.11" height="4.58" fill="#dbdbdb"/>
<rect x="633.52" y="180.33" width="122.02" height="4.58" fill="#dbdbdb"/>
<rect x="633.52" y="189.91" width="93.06" height="4.58" fill="#dbdbdb"/>
<rect x="633.52" y="199.51" width="139.08" height="4.58" fill="#dbdbdb"/>
<rect x="633.52" y="209.09" width="127.25" height="4.58" fill="#dbdbdb"/>
<rect x="633.52" y="228.26" width="132.05" height="4.58" fill="#dbdbdb"/>
<rect x="633.52" y="237.86" width="50.59" height="4.58" fill="#dbdbdb"/>
<rect x="633.52" y="247.44" width="102.01" height="4.58" fill="#dbdbdb"/>
<rect x="633.52" y="257.03" width="139.08" height="4.58" fill="#dbdbdb"/>
<rect x="633.52" y="266.61" width="119.92" height="4.58" fill="#dbdbdb"/>
<rect x="633.52" y="285.79" width="129.94" height="4.58" fill="#dbdbdb"/>
<rect x="633.52" y="295.38" width="78.66" height="4.58" fill="#dbdbdb"/>
<rect x="633.52" y="324.4" width="78.66" height="4.58" fill="#dbdbdb"/>
<circle cx="765.47" cy="328.99" r="14.57" fill="#d1d3d4"/>
<polygon points="440.93 592.43 794.3 592.43 801.65 447.45 433.58 447.45 440.93 592.43" fill="#ebebeb"/>
<path d="M777.55,513.82H629.8L627,463.48H780.78ZM631.5,512H775.87l3-46.76H628.93Z" fill="#dbdbdb"/>
<path d="M774.82,571.72H635.6l-2.26-45.43H777.66ZM637.3,569.93H773.14l2.63-41.86H635.21Z" fill="#dbdbdb"/>
<path d="M717.9,494.07H693.07l-1.55-12.14h28Zm-23.19-1.78H716.4l1.11-8.58h-23.9Z" fill="#dbdbdb"/>
<path d="M717.9,555.08H693.07l-1.55-12.15h28Zm-23.19-1.79H716.4l1.11-8.58h-23.9Z" fill="#dbdbdb"/>
<path d="M603.78,513.82H456l-2.76-50.34H607Zm-146-1.79H602.1l2.95-46.76H455.21Z" fill="#dbdbdb"/>
<path d="M601.05,571.72H461.83l-2.26-45.43H603.89Zm-137.52-1.79H599.37L602,528.07H461.44Z" fill="#dbdbdb"/>
<path d="M544.13,494.07H519.3l-1.55-12.14h28Zm-23.19-1.78h21.68l1.1-8.58h-23.9Z" fill="#dbdbdb"/>
<path d="M544.13,555.08H519.3l-1.55-12.15h28Zm-23.19-1.79h21.68l1.1-8.58h-23.9Z" fill="#dbdbdb"/>
<polygon points="472.62 592.43 470.39 608.23 465.93 639.96 457.21 639.96 457.21 592.43 472.62 592.43" fill="#ebebeb"/>
<polygon points="472.62 592.43 470.39 608.23 457.21 608.23 457.21 592.43 472.62 592.43" fill="#dbdbdb"/>
<polygon points="762.6 592.43 764.82 608.23 769.29 639.96 778.01 639.96 778.01 592.43 762.6 592.43" fill="#ebebeb"/>
<polygon points="762.6 592.43 764.82 608.23 778.01 608.23 778.01 592.43 762.6 592.43" fill="#dbdbdb"/>
</g>
<path d="M167.13,132.5S173.88,573.86,277,600.81l302.55-79.34-48-455.75S238.6,116.1,167.13,132.5Z" fill="#0071f2" data-primary="true"/>
<path d="M167.13,132.5S173.88,573.86,277,600.81l302.55-79.34-48-455.75S238.6,116.1,167.13,132.5Z" fill="#f1f2f2" opacity="0.5"/>
<g opacity="0.5">
<path d="M246.8,389.1a2.08,2.08,0,0,1-.37-4.13l258.4-46.33a2.08,2.08,0,0,1,.73,4.09L247.17,389.06A1.61,1.61,0,0,1,246.8,389.1Z" fill="#f1f2f2"/>
</g>
<g opacity="0.5">
<path d="M232.54,301.78a2.08,2.08,0,0,1-.43-4.12c1.64-.35,165.41-34.86,279.19-41.92a2.08,2.08,0,1,1,.26,4.15c-113.48,7-276.95,41.49-278.59,41.84A2.1,2.1,0,0,1,232.54,301.78Z" fill="#f1f2f2"/>
</g>
<g opacity="0.5">
<path d="M235.21,326.72a2.07,2.07,0,0,1-.28-4.13l272.65-37.43a2.08,2.08,0,1,1,.57,4.12L235.5,326.7A1.42,1.42,0,0,1,235.21,326.72Z" fill="#f1f2f2"/>
</g>
<g opacity="0.5">
<path d="M237.89,357.91a2.08,2.08,0,0,1-.3-4.14l268.2-38.31a2.08,2.08,0,0,1,.59,4.11l-268.2,38.32Z" fill="#f1f2f2"/>
</g>
<g opacity="0.5">
<path d="M253,419.39a2.08,2.08,0,0,1-.37-4.12L418.39,385a2.08,2.08,0,0,1,.75,4.09l-165.73,30.3A2.43,2.43,0,0,1,253,419.39Z" fill="#f1f2f2"/>
</g>
<g opacity="0.5">
<path d="M228.09,258.12a2.08,2.08,0,0,1-.43-4.12c1.83-.38,183.9-38.4,277.44-42.81h.1a2.08,2.08,0,0,1,.09,4.15c-93.2,4.4-275,42.35-276.78,42.73A2,2,0,0,1,228.09,258.12Z" fill="#f1f2f2"/>
</g>
<path d="M610,556.62,277,600.81c28.12-15.23,4.59-54.65,4.59-54.65l335-55.79S639.06,535.55,610,556.62Z" fill="#0071f2" data-primary="true"/>
<path d="M610,556.62,277,600.81c28.12-15.23,4.59-54.65,4.59-54.65l335-55.79S639.06,535.55,610,556.62Z" fill="#f1f2f2" opacity="0.25"/>
<g opacity="0.5">
<path d="M224.52,229.6a2.08,2.08,0,0,1-.45-4.11c1.77-.39,177.53-39.26,255.26-40.14h0a2.08,2.08,0,0,1,0,4.16c-77.3.88-252.64,39.65-254.41,40A1.73,1.73,0,0,1,224.52,229.6Z" fill="#f1f2f2"/>
</g>
<path d="M670.48,267.84a1.6,1.6,0,0,1-.84-.24,1.57,1.57,0,0,1-.48-2.15c8.86-13.93,9.54-79.14,9.56-81.95-.35-2.62-7.94-6.1-13-7.65a1.56,1.56,0,1,1,.91-3c2.45.74,14.69,4.75,15.2,10.41a.76.76,0,0,1,0,.15c0,2.8-.56,68.78-10.05,83.69A1.54,1.54,0,0,1,670.48,267.84Z" fill="#0071f2" data-primary="true"/>
<path id="b48fabe3-33b9-4ef3-bd8f-4770149cbbcc" data-name="SVGID" d="M597.41,283.66s26.63-107,39.67-125c0,0,24,2.44,34.29,10.91,0,0-29.85,151.47-60.14,215.62l-32.08-73.51Z" fill="#0071f2" data-primary="true"/>
<g clip-path="url(#e4dd9765-2878-4573-bb7c-5fa3699dd086)">
<path d="M611.67,227.52s30.74,2.23,49-63.26c0,0,6.68,2.23,10.69,5.35,0,0-22.72,126.52-60.14,215.62l-16-58.8,7.57-62.82Z" fill="#f1f2f2" opacity="0.5"/>
</g>
<path d="M637.08,158.7l3.65-9.69a3.23,3.23,0,0,1,3.22-2.09c5.83.38,20.81,1.94,28.27,8.05a3.19,3.19,0,0,1,1.09,3l-1.94,11.64S666.05,163.39,637.08,158.7Z" fill="#2f2e41" data-secondary="true"/>
<path d="M461.68,334.15s.11-8.91,7-.89Z" fill="#f7a48b"/>
<path d="M452.13,361l1.56-7.2,3.13,3.13a27.93,27.93,0,0,1-2.91,2.73C453.3,360.14,452.7,360.58,452.13,361Z" fill="#f7a48b"/>
<path d="M441.49,353.47s9.08,5.63,19.4,3.44c0,0,7.51-5,5.63-18.14L456.2,336,439,342.21Z" fill="#f7a48b"/>
<path d="M358.72,606.52l12-33.32s3.71-6.79,8-53.07c0,0,6.17-68.19,4.32-95.65,0,0-4.94,3.39-22.53,3.39l-8.95,173.71Z" fill="#2f2e41" data-secondary="true"/>
<polygon points="376.92 479.09 368.29 555.3 363.04 595.1 358.72 606.52 356.87 578.13 367.98 484.64 376.92 479.09" opacity="0.2"/>
<path d="M325.09,425.4s6.06,81.43,2.83,113.83a34.56,34.56,0,0,1-.93,5.25c-2.83,11-14.93,61.87-3.14,82.71a67.81,67.81,0,0,0,26.23-.92l11.73-.93s-6.18-13.27-.31-38c0,0,4.63-26.23,5.24-42.27l4.94-34.25,8-49.37,3.4-37S377.23,431.57,325.09,425.4Z" fill="#2f2e41" data-secondary="true"/>
<path d="M325.09,425.4l3.08,52.45s21.6-4.93,34.56-27.77c0,0,14.5-19.43,20.67-19.43l-.3-6.17S374.46,431.88,325.09,425.4Z" opacity="0.2"/>
<path d="M327.88,240s-22.94,13.81-21.61,27.4c0,0-4.88,49.85,4.41,90.76a24,24,0,0,1,.61,6.26c-.38,9.73-2,38.6-7.69,48,0,0-3.84,16.8,61.38,15.48a53.35,53.35,0,0,0,27.27-8,40.83,40.83,0,0,0,3.85-2.71,5.36,5.36,0,0,0,2-4.14c.18-11.48.53-60.6-5.48-89.57A90.44,90.44,0,0,1,391,312.28c-1.07-13.81-4.67-48-14.53-60.7Z" fill="#0071f2" data-primary="true"/>
<path d="M570.9,611.94s-12.13,16.71-27.83,17.83c0,0-12.58,1.66-8.21,9.05,0,0,56-2.07,71.19-5.45,0,0,6.79-9-4-13.61Z" fill="#0071f2" data-primary="true"/>
<path d="M534.86,638.82s-2.38,4.4,10.26,3.5l60.82-5.1.11-3.85Z" fill="#2f2e41" data-secondary="true"/>
<path d="M534.86,638.82s-2.38,4.4,10.26,3.5l60.82-5.1.11-3.85Z" opacity="0.2"/>
<path d="M565,618.21s30,2.22,20.22,15.62c0,0,13.28.85,20.88-.46,0,0,6.79-9-4-13.61l-31.19-7.82Z" opacity="0.4"/>
<path d="M528.82,409.32s.72,58.71-.33,71.3c0,0-4.19,24.64,6.3,39.32l21.49,44-4.72-153.1L538.46,371l-14.69,2.62S521.29,399.9,528.82,409.32Z" fill="#2f2e41" data-secondary="true"/>
<path d="M529.55,442.56s8.32,32.07,11.29,89.4c0,0,9.8,21,15.44,32l-4.72-153.1L538.46,371l-14.69,2.62s-2.21,23.53,5.05,35.67Z" opacity="0.4"/>
<path d="M534.79,405.11S536.73,441,542,459.59A58.37,58.37,0,0,1,544.12,478c-.74,16.66-1.19,47.43,4.82,57.2,0,0,5.85,20.86,5.26,27.4a56.22,56.22,0,0,0,2.15,12.35A52.59,52.59,0,0,1,559,589.27l.85,24.07s11.88,18.71,34.16,12.77c0,0,9.88-.73,8.15-8.47a8,8,0,0,0-2.35-4l-.43-.42a21.75,21.75,0,0,1-6.11-14.71c-.19-7.49-.29-23.4,1.93-32.71,0,0,3.56-29.7-.89-49,0,0-2.38-56.14.59-66.53,0,0,11.29-28.22,7.43-46.63Z" fill="#2f2e41" data-secondary="true"/>
<path d="M539.05,445.23s1.49-16.34,23.17-13.37l37.42,2.38s5.35-20.2,2.68-30.59l-67.53,1.46S535.49,428.3,539.05,445.23Z" opacity="0.2"/>
<path d="M341.92,297.91s5.56,75.07,32.52,107.82c0,0,9.24,10.5,21.66,11.49A53.46,53.46,0,0,1,365,427.89s-61.6,2.12-61.38-15.48c0,0,8.6-17.16,7.08-54.25l13-33.74Z" opacity="0.2"/>
<path d="M382.9,301.48a38.53,38.53,0,0,1,5.08,8.83,71.38,71.38,0,0,1,3.38,9.63,94.62,94.62,0,0,1,2.19,10c.27,1.68.49,3.36.72,5s.33,3.38.44,5.07c-.35-1.66-.63-3.33-.94-5l-1-5c-.75-3.29-1.47-6.59-2.41-9.83s-1.92-6.46-3.12-9.61c-.6-1.58-1.24-3.14-2-4.66A34.81,34.81,0,0,0,382.9,301.48Z" opacity="0.2"/>
<path d="M327.88,240l-6.9,4.68s27.84,36.75,60.59,53c0,0-21.39-15.81-52.35-51.45A7.69,7.69,0,0,1,327.88,240Z" opacity="0.05"/>
<path d="M392.61,323.51s28.23,11.81,52.32,12.13c0,0-1.25,21-7.82,21.9,0,0-27.22,4.06-41-1.88C396.13,355.66,395.35,335.79,392.61,323.51Z" fill="#0071f2" data-primary="true"/>
<path d="M404.89,327.5a32.47,32.47,0,0,0,15.95,16.58s26,12.52,8.76,14.08c0,0-17.83,3.44-33.47-2.5,0,0-1.1-19.87-3.52-32.15A112.94,112.94,0,0,0,404.89,327.5Z" opacity="0.2"/>
<path d="M444.62,337.83s17.73-5.84,24.07-4.57a1.77,1.77,0,0,1,.79,3.06c-4.84,4.31-20.68,17.19-25.17,5.57Z" fill="#f9b499"/>
<path d="M452.13,361s10.86-8,13.05-21.12l4.3-3.54,5.71,2a9.29,9.29,0,0,0,2.77.51l9.84.27s-.45,9.3,3.44,16.89c0,0-13.77,5.95-18.46,5.95,0,0-7.51,2.81-10.64-.63C462.14,361.29,456.2,362.54,452.13,361Z" fill="#f9b499"/>
<path d="M462.14,361.29a12.19,12.19,0,0,1,1.77-3.28,12,12,0,0,1,2.61-2.66,13.3,13.3,0,0,1-4.38,5.94Z" fill="#f7a48b"/>
<path d="M472.78,361.92a3.93,3.93,0,0,1,.66-2,3.81,3.81,0,0,1,1.53-1.44,4.28,4.28,0,0,1-2.19,3.44Z" fill="#f7a48b"/>
<path d="M544.19,249.21s-19.81,35.58-19.41,52.57c0,0-6.12,86-4.22,112a2,2,0,0,0,3.58,1,3.07,3.07,0,0,0,.2-.36,12.46,12.46,0,0,1,3.56-4.28l.92-.74S525.18,372.13,530,379l8.89,42.05s-1.21,6.06,7.28,4c0,0,37.6,3.64,56.2-12.13l15.72-6.4A6.54,6.54,0,0,0,621.7,398l-12.82-30.71s-6.88-22.64-4.45-34.36c0,0,13.75-74.4-24.26-112.81,0,0,3.24,5.26-1.21,9.71,0,0-20.5,25.07-30.21,33.56C548.75,263.37,544.19,269.83,544.19,249.21Z" fill="#0071f2" data-primary="true"/>
<path d="M529.63,374.55c-.21-10.61-.31-21.23-.4-31.85l-.12-31.84a104.78,104.78,0,0,1,4.73-31.51q5-15.14,10.35-30.14l-4.76,15.2c-1.6,5.06-3.26,10.12-4.82,15.17a106.54,106.54,0,0,0-4.46,31.28L530,342.7C530,353.32,529.85,363.94,529.63,374.55Z" opacity="0.2"/>
<path d="M523.16,325.63l.81-8.49S549,308.65,566.83,263l13.75,13.75L598,288s2,20.62-9.3,38.41c0,0-2.42,6.47,1.62,9.3,0,0,7.28,12.94-8.09,18.19,0,0-6.06,10.51-33.56,6.47,0,0-20.21-7.68-27.09-2Z" opacity="0.2"/>
<path d="M327.56,418.61l.61,21.91a7.31,7.31,0,0,0,4.32,8s3.82,7.15,7.79,10.51a2.71,2.71,0,0,0,4.41-2.23l-.16-4.27s1.81,3.18,3.69,1.56a2.74,2.74,0,0,0,.86-2.27l-.85-11S355,438.36,350.7,426L346,415.11s-1.43.08-10.68,1.64C335.34,416.75,330.33,416.76,327.56,418.61Z" fill="#f9b499"/>
<rect x="329.25" y="444.63" width="6.79" height="1.04" transform="translate(-127.01 757.44) rotate(-87.42)" fill="#f7a48b"/>
<rect x="332.34" y="450.49" width="12.96" height="1.04" transform="translate(-120.01 779.17) rotate(-88.66)" fill="#f7a48b"/>
<rect x="343.85" y="445.45" width="1.04" height="7.1" transform="translate(-19.18 15.39) rotate(-2.49)" fill="#f7a48b"/>
<rect x="347.25" y="431.55" width="1.04" height="9.3" transform="translate(-41.68 36.77) rotate(-5.71)" fill="#f7a48b"/>
<path id="b0f8679b-c9ad-471f-ac64-05653314dbfe" data-name="SVGID" d="M323.85,627.19s-3.87,4.41-2.79,19.61l68-3.26s4.7-5.06-5.43-6.87c0,0-16.95-5.65-21.86-11.33,0,0-9.13.3-11.73.93C350.08,626.27,335.69,630,323.85,627.19Z" fill="#0071f2" data-primary="true"/>
<g clip-path="url(#afc481d0-29ea-45d5-8a10-b7ee59cab9b5)">
<path d="M330.47,628.34s-11.22,5.07,3.62,8.69c0,0,27.14,1.08,32.57,4.7,1.09.73,23.52-.72,23.52-.72l4,1.81L375.71,659.1,316,653.31,310.21,632l10.13-7.24,3.51,2.47Z" opacity="0.2"/>
</g>
<path d="M559.84,613.34s-13.29,15.8-29,15.8c0,0-12.67.77-8.83,8.45,0,0,56,1.92,71.39-.38,0,0,5.84-4.93.62-11.1Z" fill="#0071f2" data-primary="true"/>
<path d="M522,637.59s-2.69,4.22,10,4.22l61-.77.38-3.83Z" fill="#2f2e41" data-secondary="true"/>
<path d="M553.75,619.23s29.6,5.35,18.85,18c0,0,14.12.06,20.78,0,0,0,5.85-4.88.62-11.1l-34.16-12.77c-.81.9-1.7,1.83-2.67,2.77C556,617.26,554.85,618.29,553.75,619.23Z" opacity="0.2"/>
<circle cx="463.76" cy="463.2" r="40.54" fill="#f1f2f2" opacity="0.5"/>
<path d="M469.32,484.94a7,7,0,0,1-3.35-.86l-31.52-17.27a2.59,2.59,0,0,1,2.49-4.55l31.52,17.26a1.77,1.77,0,0,0,1.7,0,1.74,1.74,0,0,0,.94-1.42l6-70.53a9.67,9.67,0,0,1,9.69-8.9h3.26a2.6,2.6,0,1,1,0,5.2h-3.26a4.5,4.5,0,0,0-4.51,4.14l-6,70.53a7,7,0,0,1-7,6.4Z" fill="#0071f2" data-primary="true"/>
<path d="M542.79,226.66s4.32,4.57,6.86,17l24.14-23.63-11.68-16.77Z" fill="#f9b499"/>
<path d="M544.19,249.21s-.85,19.65,4.85,14.56c0,0,22.63-22.43,29.92-34,0,0,5-5.08,1.21-9.71,0,0-3.84-8.43-7.39-1.57C572.78,218.53,546.09,240.77,544.19,249.21Z" fill="#0071f2" data-primary="true"/>
<path d="M544.19,249.21s-.85,19.65,4.85,14.56c0,0,22.63-22.43,29.92-34,0,0,5-5.08,1.21-9.71,0,0-3.84-8.43-7.39-1.57C572.78,218.53,546.09,240.77,544.19,249.21Z" fill="#fff" opacity="0.4"/>
<path d="M549.3,240.67s-3.66-10.42-6.51-14L561.11,203S561.77,224.41,549.3,240.67Z" fill="#f7a48b"/>
<ellipse cx="540.38" cy="197.82" rx="19.95" ry="31.89" fill="#f9b499"/>
<path d="M565.93,267.59c8.81-23.59,18.75-23.87,25.75-19.59A20.06,20.06,0,0,1,601,265.4c-.31,42.08-25.32,71.94-25.32,71.94-8.23,18.81-22.73,14.9-22.73,14.9H530.26l-39,3.73c-5.72-12.72-2.91-21.76-2.91-21.76L526,324.8a79.61,79.61,0,0,1,20-5.48s10.19,1.17,11.36-12.94Z" fill="#0071f2" data-primary="true"/>
<path d="M338.35,229.31s-4.23-2.9-7.35,4c0,0-5.79,8.24-1.78,12.92,0,0,38.53,43,52.35,51.45,0,0-4.44-34-4.73-45.11a25.19,25.19,0,0,0-1.57-8.38c-.92-2.39-2.23-4.69-3.95-5.09Z" fill="#0071f2" data-primary="true"/>
<path d="M338.35,229.31s-4.23-2.9-7.35,4c0,0-5.79,8.24-1.78,12.92,0,0,38.53,43,52.35,51.45,0,0-4.44-34-4.73-45.11a25.19,25.19,0,0,0-1.57-8.38c-.92-2.39-2.23-4.69-3.95-5.09Z" opacity="0.2"/>
<path d="M373.37,233.64l-5.62,14.7a33.16,33.16,0,0,1-16.36-12.63,15.75,15.75,0,0,1-2-4.29c-.8-2.61-2.6-6.95-5.72-6.79L355,202.48s4.12,7.67,5,7C360,209.48,360.9,225,373.37,233.64Z" fill="#f9b499"/>
<path d="M343.7,224.63l-7.8,7.57L372.43,269s4.22-18.08-4.68-20.62c0,0-13.81-4.78-17.82-15.92C349.93,232.42,348.63,224.92,343.7,224.63Z" fill="#fff"/>
<path d="M379.34,284.1a80.94,80.94,0,0,1-12.81-11.24,117.9,117.9,0,0,1-10.67-13.32c-1.6-2.36-3.14-4.75-4.6-7.2-.73-1.22-1.44-2.45-2.14-3.69s-1.32-2.52-2.07-3.69a45.83,45.83,0,0,0-5.43-6.45c-1.91-2.1-3.84-4.18-5.72-6.31,2.05,2,4.06,4,6.08,6l3,3a25.82,25.82,0,0,1,2.73,3.34c.83,1.19,1.49,2.47,2.19,3.68s1.42,2.45,2.16,3.65c1.47,2.42,3,4.78,4.65,7.1a130.54,130.54,0,0,0,10.4,13.38l1.41,1.58,1.46,1.54c1,1,2,2,3,3s2.07,1.92,3.1,2.89S378.26,283.17,379.34,284.1Z" fill="#0071f2" data-primary="true"/>
<path d="M322,419.61a1.13,1.13,0,0,0,1.87.65c1.47-1.28,4.59-2.73,11.16-2.73,0,0,7.41,0,11-2.42a2.84,2.84,0,0,0,1.2-2.45l-1.74-62s-.7-9-3.16-15.59a15,15,0,0,1-1-5.69l1.24-44.21s-.44-38.32-33.86-27.62c0,0-3.56,6.23-2.45,9.8,0,0-4.76,51.89,4.41,90.76,0,0,4.06,11.26,8.29,34.65C319,392.81,320.76,412.17,322,419.61Z" fill="#0071f2" data-primary="true"/>
<path d="M370.36,241l3.91-9.14-11.74-18.27S360,229.12,370.36,241Z" fill="#f7a48b"/>
<ellipse cx="379.48" cy="201.88" rx="20.65" ry="33.32" fill="#f9b499"/>
<path d="M351.67,197.43c-1.58-4-4.36-10.59-6.56-13.65,0,0-5.25-10.68,7.24-7.6,0,0-1.81-4.35,4.35-7.07,0,0,12.7-11.88,27.44-1.23a1.22,1.22,0,0,0,1.94-1c-.08-2,.5-4.16,3.58-3.34,0,0,9.62,3.76,8.87,13.33a5.17,5.17,0,0,1-6,4.77c-.61-.12-1.57-1.39-1.93-.71-5.07,9.41-17.39,2.71-17.39,2.71s-1.63,2.9-5.25.91c0,0,.82,13.79-3.89,19.4,0,0,0-10.18-5.81-7.74-2.88,1.21-3.17,4.62-2.73,7.58,0,.05-.06,0-.21-.21A22.22,22.22,0,0,1,351.67,197.43Z" fill="#2f2e41" data-secondary="true"/>
<ellipse cx="359.64" cy="202.48" rx="4.69" ry="7.27" fill="#f9b499"/>
<path d="M520.71,191.81s.64-4.95,1.74-6.87a1.5,1.5,0,0,1,1.2-.75l17.16-1.43s-.92,6.82,3.13,6.45c0,0,9.59,7.81,9.59,10,0,0-.3-7.69,4-8.23a3.73,3.73,0,0,1,4,2.83,12.88,12.88,0,0,1-1.25,9.86l4,2.45s6.64-9.37,1.48-13.61c0,0,11.8-11.43,1.66-17.52,0,0,6.64-11.06-4.24-13.46,0,0-11.62-5.16-36.51,4.06,0,0-23.41,8.67-5.9,15.86a1.33,1.33,0,0,1,.32,2.17c-.86,1-2.47,1.26-2.77,3.12C518,188.31,518.71,189.28,520.71,191.81Z" fill="#2f2e41" data-secondary="true"/>
<ellipse cx="558.43" cy="198.12" rx="5.21" ry="7.24" transform="translate(-24.63 92.57) rotate(-9.27)" fill="#f9b499"/>
</svg>